# Blender 5.2.2 LTS
# www.blender.org
mtllib TongueTip.mtl
o TongueTip
v 0.000000 0.310000 0.000000
v 0.000000 0.289211 -0.111260
v 0.000000 0.213120 -0.303523
v 0.000000 0.111049 -0.345145
v 0.000000 0.055965 -0.356239
v 0.000000 0.000000 -0.360000
v 0.000000 -0.055965 -0.356239
v 0.000000 -0.111049 -0.345145
v 0.000000 -0.213120 -0.303523
v 0.000000 -0.289211 -0.111260
v 0.000000 -0.310000 0.000000
v 0.030963 0.289655 -0.107469
v 0.064385 0.256645 -0.209550
v 0.097693 0.214116 -0.300718
v 0.127919 0.165031 -0.360160
v 0.152108 0.111848 -0.416164
v 0.167749 0.056409 -0.453909
v 0.173160 0.000000 -0.466998
v 0.167749 -0.056409 -0.453909
v 0.152108 -0.111848 -0.416164
v 0.127919 -0.165031 -0.360160
v 0.097693 -0.214116 -0.300718
v 0.064385 -0.256645 -0.209550
v 0.030963 -0.289655 -0.107469
v 0.059382 0.290955 -0.096354
v 0.122736 0.258988 -0.187877
v 0.185330 0.217038 -0.269979
v 0.241777 0.167952 -0.338077
v 0.286754 0.114191 -0.389922
v 0.315757 0.057709 -0.422072
v 0.325777 0.000000 -0.432954
v 0.315757 -0.057709 -0.422072
v 0.286754 -0.114191 -0.389922
v 0.241777 -0.167952 -0.338077
v 0.185330 -0.217038 -0.269979
v 0.122736 -0.258988 -0.187877
v 0.059382 -0.290955 -0.096354
v 0.083006 0.293024 -0.078673
v 0.169873 0.262715 -0.153401
v 0.254452 0.221686 -0.220437
v 0.329904 0.172601 -0.276419
v 0.389568 0.117919 -0.318540
v 0.427856 0.059777 -0.344689
v 0.441053 0.000000 -0.353553
v 0.427856 -0.059777 -0.344689
v 0.389568 -0.117919 -0.318540
v 0.329904 -0.172601 -0.276419
v 0.254452 -0.221686 -0.220437
v 0.169873 -0.262715 -0.153401
v 0.083006 -0.293024 -0.078673
v 0.100107 0.295719 -0.055630
v 0.202143 0.267573 -0.108471
v 0.299437 0.227744 -0.155872
v 0.384863 0.178658 -0.195458
v 0.451643 0.122776 -0.225242
v 0.494181 0.062473 -0.243732
v 0.508790 0.000000 -0.250000
v 0.494181 -0.062473 -0.243732
v 0.451643 -0.122776 -0.225242
v 0.384863 -0.178658 -0.195458
v 0.299437 -0.227744 -0.155872
v 0.202143 -0.267573 -0.108471
v 0.100107 -0.295719 -0.055630
v 0.109636 0.298859 -0.028796
v 0.217786 0.273230 -0.056149
v 0.318130 0.234798 -0.080686
v 0.404338 0.185712 -0.101176
v 0.470648 0.128433 -0.116594
v 0.512438 0.065613 -0.126165
v 0.526713 0.000000 -0.129409
v 0.512438 -0.065613 -0.126165
v 0.470648 -0.128433 -0.116594
v 0.404338 -0.185712 -0.101176
v 0.318130 -0.234798 -0.080686
v 0.217786 -0.273230 -0.056149
v 0.109636 -0.298859 -0.028796
v 0.111260 0.302228 0.000000
v 0.216942 0.279300 -0.000000
v 0.311745 0.242368 0.000000
v 0.390916 0.193282 0.000000
v 0.450484 0.134504 0.000000
v 0.487464 0.068981 0.000000
v 0.500000 0.000000 0.000000
v 0.487464 -0.068981 0.000000
v 0.450484 -0.134504 0.000000
v 0.390916 -0.193282 0.000000
v 0.311745 -0.242368 0.000000
v 0.216942 -0.279300 -0.000000
v 0.111260 -0.302228 0.000000
v 0.105613 0.298746 0.028796
v 0.202490 0.273027 0.056149
v 0.286545 0.234546 0.080686
v 0.354673 0.185460 0.101176
v 0.404694 0.128231 0.116594
v 0.435211 0.065500 0.126165
v 0.445463 0.000000 0.129410
v 0.435211 -0.065500 0.126165
v 0.404694 -0.128231 0.116594
v 0.354673 -0.185460 0.101176
v 0.286545 -0.234546 0.080686
v 0.202490 -0.273027 0.056149
v 0.105613 -0.298746 0.028796
v 0.093138 0.295502 0.055630
v 0.175650 0.267182 0.108471
v 0.244730 0.227256 0.155872
v 0.298840 0.178170 0.195458
v 0.337407 0.122386 0.225242
v 0.360420 0.062256 0.243732
v 0.368061 0.000000 0.250000
v 0.360420 -0.062256 0.243732
v 0.337407 -0.122386 0.225242
v 0.298840 -0.178170 0.195458
v 0.244730 -0.227256 0.155872
v 0.175650 -0.267182 0.108471
v 0.093138 -0.295502 0.055630
v 0.074959 0.292717 0.078673
v 0.139282 0.262162 0.153401
v 0.191281 0.220997 0.220437
v 0.230575 0.171911 0.276419
v 0.257660 0.117366 0.318541
v 0.273403 0.059471 0.344689
v 0.278553 0.000000 0.353553
v 0.273403 -0.059471 0.344689
v 0.257660 -0.117366 0.318541
v 0.230575 -0.171911 0.276419
v 0.191281 -0.220997 0.220437
v 0.139282 -0.262162 0.153401
v 0.074959 -0.292717 0.078673
v 0.052414 0.290579 0.096354
v 0.096243 0.258311 0.187877
v 0.130623 0.216194 0.269979
v 0.155755 0.167108 0.338543
v 0.172518 0.113514 0.390131
v 0.181996 0.057333 0.422156
v 0.185048 0.000000 0.433013
v 0.181996 -0.057333 0.422156
v 0.172518 -0.113514 0.390131
v 0.155755 -0.167108 0.338543
v 0.130623 -0.216194 0.269979
v 0.096243 -0.258311 0.187877
v 0.052414 -0.290579 0.096354
v 0.026939 0.289236 0.107469
v 0.049089 0.255889 0.209550
v 0.066108 0.213175 0.301122
v 0.078254 0.164089 0.377595
v 0.086153 0.111093 0.435135
v 0.090522 0.055989 0.470854
v 0.091909 0.000000 0.482963
v 0.090522 -0.055989 0.470854
v 0.086153 -0.111093 0.435135
v 0.078254 -0.164089 0.377595
v 0.066108 -0.213175 0.301122
v 0.049089 -0.255889 0.209550
v 0.026939 -0.289236 0.107469
v 0.000000 0.288777 0.111260
v 0.000000 0.255064 0.216942
v -0.000000 0.212145 0.311745
v 0.000000 0.163059 0.390916
v -0.000000 0.110267 0.450484
v -0.000000 0.055531 0.487464
v -0.000000 0.000000 0.500000
v -0.000000 -0.055531 0.487464
v -0.000000 -0.110267 0.450484
v 0.000000 -0.163059 0.390916
v -0.000000 -0.212145 0.311745
v 0.000000 -0.255064 0.216942
v 0.000000 -0.288777 0.111260
v -0.026939 0.289236 0.107469
v -0.049089 0.255889 0.209550
v -0.066108 0.213175 0.301122
v -0.078254 0.164089 0.377595
v -0.086154 0.111093 0.435135
v -0.090522 0.055989 0.470854
v -0.091910 0.000000 0.482963
v -0.090522 -0.055989 0.470854
v -0.086154 -0.111093 0.435135
v -0.078254 -0.164089 0.377595
v -0.066108 -0.213175 0.301122
v -0.049089 -0.255889 0.209550
v -0.026939 -0.289236 0.107469
v -0.052414 0.290579 0.096354
v -0.096243 0.258311 0.187877
v -0.130623 0.216194 0.269979
v -0.155755 0.167108 0.338543
v -0.172518 0.113514 0.390131
v -0.181996 0.057333 0.422156
v -0.185048 0.000000 0.433013
v -0.181996 -0.057333 0.422156
v -0.172518 -0.113514 0.390131
v -0.155755 -0.167108 0.338543
v -0.130623 -0.216194 0.269979
v -0.096243 -0.258311 0.187877
v -0.052414 -0.290579 0.096354
v -0.074959 0.292717 0.078673
v -0.139282 0.262162 0.153401
v -0.191281 0.220997 0.220437
v -0.230575 0.171911 0.276419
v -0.257660 0.117366 0.318541
v -0.273403 0.059471 0.344689
v -0.278553 0.000000 0.353553
v -0.273403 -0.059471 0.344689
v -0.257660 -0.117366 0.318541
v -0.230575 -0.171911 0.276419
v -0.191281 -0.220997 0.220437
v -0.139282 -0.262162 0.153401
v -0.074959 -0.292717 0.078673
v -0.093138 0.295502 0.055630
v -0.175650 0.267182 0.108471
v -0.244730 0.227256 0.155872
v -0.298840 0.178170 0.195458
v -0.337407 0.122386 0.225242
v -0.360420 0.062256 0.243732
v -0.368061 0.000000 0.250000
v -0.360420 -0.062256 0.243732
v -0.337407 -0.122386 0.225242
v -0.298840 -0.178170 0.195458
v -0.244730 -0.227256 0.155872
v -0.175650 -0.267182 0.108471
v -0.093138 -0.295502 0.055630
v -0.105613 0.298746 0.028796
v -0.202490 0.273027 0.056149
v -0.286545 0.234546 0.080685
v -0.354673 0.185460 0.101176
v -0.404694 0.128231 0.116594
v -0.435211 0.065500 0.126165
v -0.445463 0.000000 0.129409
v -0.435211 -0.065500 0.126165
v -0.404694 -0.128231 0.116594
v -0.354673 -0.185460 0.101176
v -0.286545 -0.234546 0.080685
v -0.202490 -0.273027 0.056149
v -0.105613 -0.298746 0.028796
v -0.111260 0.302228 0.000000
v -0.216942 0.279300 0.000000
v -0.311745 0.242368 -0.000000
v -0.390916 0.193282 -0.000000
v -0.450484 0.134504 -0.000000
v -0.487464 0.068981 -0.000000
v -0.500000 0.000000 -0.000000
v -0.487464 -0.068981 -0.000000
v -0.450484 -0.134504 -0.000000
v -0.390916 -0.193282 -0.000000
v -0.311745 -0.242368 -0.000000
v -0.216942 -0.279300 0.000000
v -0.111260 -0.302228 0.000000
v -0.109636 0.298859 -0.028796
v -0.217786 0.273230 -0.056149
v -0.318130 0.234798 -0.080686
v -0.404338 0.185712 -0.101176
v -0.470648 0.128433 -0.116594
v -0.512438 0.065613 -0.126165
v -0.526713 0.000000 -0.129410
v -0.512438 -0.065613 -0.126165
v -0.470648 -0.128433 -0.116594
v -0.404338 -0.185712 -0.101176
v -0.318130 -0.234798 -0.080686
v -0.217786 -0.273230 -0.056149
v -0.109636 -0.298859 -0.028796
v -0.100107 0.295719 -0.055630
v -0.202143 0.267573 -0.108471
v -0.299437 0.227744 -0.155872
v -0.384862 0.178658 -0.195458
v -0.451643 0.122776 -0.225242
v -0.494181 0.062473 -0.243732
v -0.508790 0.000000 -0.250000
v -0.494181 -0.062473 -0.243732
v -0.451643 -0.122776 -0.225242
v -0.384862 -0.178658 -0.195458
v -0.299437 -0.227744 -0.155872
v -0.202143 -0.267573 -0.108471
v -0.100107 -0.295719 -0.055630
v -0.083006 0.293024 -0.078673
v -0.169873 0.262715 -0.153401
v -0.254452 0.221686 -0.220437
v -0.329904 0.172601 -0.276419
v -0.389568 0.117919 -0.318540
v -0.427856 0.059777 -0.344689
v -0.441053 0.000000 -0.353553
v -0.427856 -0.059777 -0.344689
v -0.389568 -0.117919 -0.318540
v -0.329904 -0.172601 -0.276419
v -0.254452 -0.221686 -0.220437
v -0.169873 -0.262715 -0.153401
v -0.083006 -0.293024 -0.078673
v -0.059382 0.290955 -0.096354
v -0.122736 0.258988 -0.187877
v -0.185330 0.217038 -0.269979
v -0.241777 0.167952 -0.338077
v -0.286754 0.114191 -0.389922
v -0.315757 0.057709 -0.422072
v -0.325777 0.000000 -0.432954
v -0.315757 -0.057709 -0.422072
v -0.286754 -0.114191 -0.389922
v -0.241777 -0.167952 -0.338077
v -0.185330 -0.217038 -0.269979
v -0.122736 -0.258988 -0.187877
v -0.059382 -0.290955 -0.096354
v -0.030963 0.289655 -0.107469
v -0.064385 0.256645 -0.209550
v -0.097693 0.214117 -0.300717
v -0.127919 0.165031 -0.360160
v -0.152108 0.111848 -0.416164
v -0.167748 0.056409 -0.453908
v -0.173159 0.000000 -0.466998
v -0.167748 -0.056409 -0.453908
v -0.152108 -0.111848 -0.416164
v -0.127919 -0.165031 -0.360160
v -0.097693 -0.214117 -0.300717
v -0.064385 -0.256645 -0.209550
v -0.030963 -0.289655 -0.107469
v -0.000000 0.255845 -0.216942
v -0.000000 0.164034 -0.327275
v -0.000000 -0.164034 -0.327275
v -0.000000 -0.255845 -0.216942
vn -0.0000 1.0000 0.0031
vn -0.0000 0.9689 -0.2473
vn -0.0000 0.7826 -0.6226
vn -0.0000 0.4434 -0.8963
vn -0.0000 0.2408 -0.9706
vn -0.0000 -0.0000 -1.0000
vn -0.0000 -0.2408 -0.9706
vn -0.0000 -0.4434 -0.8963
vn -0.0000 -0.7826 -0.6226
vn -0.0000 -0.9689 -0.2473
vn -0.0000 -1.0000 0.0031
vn 0.0320 0.9696 -0.2426
vn 0.0535 0.9326 -0.3570
vn 0.0262 0.8224 -0.5683
vn -0.0590 0.6887 -0.7226
vn -0.1315 0.5504 -0.8244
vn -0.1432 0.3247 -0.9349
vn -0.1348 -0.0000 -0.9909
vn -0.1432 -0.3247 -0.9349
vn -0.1315 -0.5504 -0.8244
vn -0.0590 -0.6887 -0.7226
vn 0.0262 -0.8224 -0.5683
vn 0.0535 -0.9326 -0.3570
vn 0.0320 -0.9696 -0.2426
vn 0.0635 0.9715 -0.2283
vn 0.1177 0.9391 -0.3229
vn 0.1645 0.8849 -0.4359
vn 0.2053 0.8074 -0.5532
vn 0.2711 0.6769 -0.6843
vn 0.3591 0.4151 -0.8359
vn 0.4061 -0.0000 -0.9138
vn 0.3591 -0.4151 -0.8359
vn 0.2711 -0.6769 -0.6843
vn 0.2053 -0.8074 -0.5532
vn 0.1645 -0.8849 -0.4359
vn 0.1177 -0.9391 -0.3229
vn 0.0635 -0.9715 -0.2283
vn 0.0933 0.9744 -0.2043
vn 0.1758 0.9454 -0.2746
vn 0.2609 0.9029 -0.3415
vn 0.3614 0.8334 -0.4182
vn 0.4912 0.7001 -0.5183
vn 0.6403 0.4312 -0.6357
vn 0.7177 -0.0000 -0.6964
vn 0.6403 -0.4312 -0.6357
vn 0.4912 -0.7001 -0.5183
vn 0.3614 -0.8334 -0.4182
vn 0.2609 -0.9029 -0.3415
vn 0.1758 -0.9454 -0.2746
vn 0.0933 -0.9744 -0.2043
vn 0.1189 0.9779 -0.1718
vn 0.2285 0.9510 -0.2085
vn 0.3450 0.9088 -0.2346
vn 0.4832 0.8362 -0.2594
vn 0.6553 0.6964 -0.2926
vn 0.8411 0.4236 -0.3363
vn 0.9326 -0.0000 -0.3610
vn 0.8411 -0.4236 -0.3363
vn 0.6553 -0.6964 -0.2926
vn 0.4832 -0.8362 -0.2594
vn 0.3450 -0.9088 -0.2346
vn 0.2285 -0.9510 -0.2085
vn 0.1189 -0.9779 -0.1718
vn 0.1374 0.9814 -0.1339
vn 0.2698 0.9540 -0.1305
vn 0.4124 0.9046 -0.1076
vn 0.5738 0.8159 -0.0707
vn 0.7544 0.6558 -0.0287
vn 0.9238 0.3830 0.0043
vn 0.9999 -0.0000 0.0162
vn 0.9238 -0.3830 0.0043
vn 0.7544 -0.6558 -0.0287
vn 0.5738 -0.8159 -0.0707
vn 0.4124 -0.9046 -0.1076
vn 0.2698 -0.9540 -0.1305
vn 0.1374 -0.9814 -0.1339
vn 0.1451 0.9893 0.0169
vn 0.2889 0.9563 0.0447
vn 0.4418 0.8927 0.0890
vn 0.6051 0.7824 0.1473
vn 0.7691 0.6029 0.2121
vn 0.9030 0.3363 0.2674
vn 0.9570 -0.0000 0.2900
vn 0.9030 -0.3363 0.2674
vn 0.7691 -0.6029 0.2121
vn 0.6051 -0.7824 0.1473
vn 0.4418 -0.8927 0.0890
vn 0.2889 -0.9563 0.0447
vn 0.1451 -0.9893 0.0169
vn 0.1404 0.9763 0.1646
vn 0.2803 0.9362 0.2120
vn 0.4278 0.8632 0.2680
vn 0.5811 0.7435 0.3309
vn 0.7282 0.5606 0.3942
vn 0.8418 0.3062 0.4445
vn 0.8858 -0.0000 0.4641
vn 0.8418 -0.3062 0.4445
vn 0.7282 -0.5606 0.3942
vn 0.5811 -0.7435 0.3309
vn 0.4278 -0.8632 0.2680
vn 0.2803 -0.9362 0.2120
vn 0.1404 -0.9763 0.1646
vn 0.1264 0.9728 0.1942
vn 0.2525 0.9301 0.2668
vn 0.3861 0.8555 0.3451
vn 0.5251 0.7353 0.4285
vn 0.6584 0.5535 0.5101
vn 0.7610 0.3019 0.5742
vn 0.8007 -0.0000 0.5991
vn 0.7610 -0.3019 0.5742
vn 0.6584 -0.5535 0.5101
vn 0.5251 -0.7353 0.4285
vn 0.3861 -0.8555 0.3451
vn 0.2525 -0.9301 0.2668
vn 0.1264 -0.9728 0.1942
vn 0.1046 0.9703 0.2180
vn 0.2093 0.9278 0.3090
vn 0.3222 0.8569 0.4024
vn 0.4435 0.7435 0.5005
vn 0.5647 0.5677 0.5990
vn 0.6626 0.3143 0.6799
vn 0.7016 -0.0000 0.7126
vn 0.6626 -0.3143 0.6799
vn 0.5647 -0.5677 0.5990
vn 0.4435 -0.7435 0.5005
vn 0.3222 -0.8569 0.4024
vn 0.2093 -0.9278 0.3090
vn 0.1046 -0.9703 0.2180
vn 0.0753 0.9688 0.2361
vn 0.1511 0.9284 0.3395
vn 0.2352 0.8650 0.4433
vn 0.3302 0.7637 0.5547
vn 0.4319 0.5987 0.6745
vn 0.5206 0.3411 0.7827
vn 0.5579 -0.0000 0.8299
vn 0.5206 -0.3411 0.7827
vn 0.4319 -0.5987 0.6745
vn 0.3302 -0.7637 0.5547
vn 0.2352 -0.8650 0.4433
vn 0.1511 -0.9284 0.3395
vn 0.0753 -0.9688 0.2361
vn 0.0396 0.9681 0.2475
vn 0.0797 0.9302 0.3583
vn 0.1254 0.8743 0.4689
vn 0.1796 0.7856 0.5920
vn 0.2419 0.6331 0.7353
vn 0.2999 0.3716 0.8786
vn 0.3253 -0.0000 0.9456
vn 0.2999 -0.3716 0.8786
vn 0.2419 -0.6331 0.7353
vn 0.1796 -0.7856 0.5920
vn 0.1254 -0.8743 0.4689
vn 0.0797 -0.9302 0.3583
vn 0.0396 -0.9681 0.2475
vn -0.0000 0.9679 0.2515
vn -0.0000 0.9311 0.3647
vn -0.0000 0.8784 0.4779
vn -0.0000 0.7954 0.6061
vn -0.0000 0.6487 0.7610
vn -0.0000 0.3857 0.9226
vn -0.0000 -0.0000 1.0000
vn -0.0000 -0.3857 0.9226
vn -0.0000 -0.6487 0.7610
vn -0.0000 -0.7954 0.6061
vn -0.0000 -0.8784 0.4779
vn -0.0000 -0.9311 0.3647
vn -0.0000 -0.9679 0.2515
vn -0.0396 0.9681 0.2475
vn -0.0797 0.9302 0.3583
vn -0.1254 0.8743 0.4689
vn -0.1796 0.7856 0.5920
vn -0.2419 0.6331 0.7353
vn -0.2999 0.3716 0.8786
vn -0.3253 -0.0000 0.9456
vn -0.2999 -0.3716 0.8786
vn -0.2419 -0.6331 0.7353
vn -0.1796 -0.7856 0.5920
vn -0.1254 -0.8743 0.4689
vn -0.0797 -0.9302 0.3583
vn -0.0396 -0.9681 0.2475
vn -0.0753 0.9688 0.2361
vn -0.1511 0.9284 0.3395
vn -0.2352 0.8650 0.4433
vn -0.3302 0.7637 0.5547
vn -0.4319 0.5987 0.6745
vn -0.5206 0.3411 0.7827
vn -0.5579 -0.0000 0.8299
vn -0.5206 -0.3411 0.7827
vn -0.4319 -0.5987 0.6745
vn -0.3302 -0.7637 0.5547
vn -0.2352 -0.8650 0.4433
vn -0.1511 -0.9284 0.3395
vn -0.0753 -0.9688 0.2361
vn -0.1046 0.9703 0.2180
vn -0.2093 0.9278 0.3090
vn -0.3222 0.8569 0.4024
vn -0.4435 0.7435 0.5005
vn -0.5647 0.5677 0.5990
vn -0.6626 0.3143 0.6799
vn -0.7016 -0.0000 0.7126
vn -0.6626 -0.3143 0.6799
vn -0.5647 -0.5677 0.5990
vn -0.4435 -0.7435 0.5005
vn -0.3222 -0.8569 0.4024
vn -0.2093 -0.9278 0.3090
vn -0.1046 -0.9703 0.2180
vn -0.1264 0.9728 0.1942
vn -0.2525 0.9301 0.2668
vn -0.3861 0.8555 0.3451
vn -0.5251 0.7353 0.4285
vn -0.6584 0.5535 0.5101
vn -0.7610 0.3019 0.5742
vn -0.8007 -0.0000 0.5991
vn -0.7610 -0.3019 0.5742
vn -0.6584 -0.5535 0.5101
vn -0.5251 -0.7353 0.4285
vn -0.3861 -0.8555 0.3451
vn -0.2525 -0.9301 0.2668
vn -0.1264 -0.9728 0.1942
vn -0.1404 0.9763 0.1646
vn -0.2803 0.9362 0.2120
vn -0.4278 0.8632 0.2680
vn -0.5811 0.7436 0.3309
vn -0.7282 0.5606 0.3942
vn -0.8418 0.3062 0.4445
vn -0.8858 -0.0000 0.4641
vn -0.8418 -0.3062 0.4445
vn -0.7282 -0.5606 0.3942
vn -0.5811 -0.7436 0.3309
vn -0.4278 -0.8632 0.2680
vn -0.2803 -0.9362 0.2120
vn -0.1404 -0.9763 0.1646
vn -0.1451 0.9893 0.0169
vn -0.2889 0.9563 0.0447
vn -0.4418 0.8927 0.0890
vn -0.6051 0.7824 0.1473
vn -0.7691 0.6029 0.2121
vn -0.9030 0.3363 0.2674
vn -0.9570 -0.0000 0.2900
vn -0.9030 -0.3363 0.2674
vn -0.7691 -0.6029 0.2121
vn -0.6051 -0.7824 0.1473
vn -0.4418 -0.8927 0.0890
vn -0.2889 -0.9563 0.0447
vn -0.1451 -0.9893 0.0169
vn -0.1374 0.9814 -0.1339
vn -0.2698 0.9540 -0.1305
vn -0.4124 0.9046 -0.1076
vn -0.5738 0.8159 -0.0707
vn -0.7544 0.6558 -0.0287
vn -0.9238 0.3829 0.0043
vn -0.9999 -0.0000 0.0162
vn -0.9238 -0.3829 0.0043
vn -0.7544 -0.6558 -0.0287
vn -0.5738 -0.8159 -0.0707
vn -0.4124 -0.9046 -0.1076
vn -0.2698 -0.9540 -0.1305
vn -0.1374 -0.9814 -0.1339
vn -0.1189 0.9779 -0.1718
vn -0.2285 0.9510 -0.2085
vn -0.3450 0.9088 -0.2346
vn -0.4832 0.8362 -0.2594
vn -0.6553 0.6964 -0.2926
vn -0.8411 0.4236 -0.3363
vn -0.9326 -0.0000 -0.3610
vn -0.8411 -0.4236 -0.3363
vn -0.6553 -0.6964 -0.2926
vn -0.4832 -0.8362 -0.2594
vn -0.3450 -0.9088 -0.2346
vn -0.2285 -0.9510 -0.2085
vn -0.1189 -0.9779 -0.1718
vn -0.0933 0.9744 -0.2043
vn -0.1758 0.9454 -0.2746
vn -0.2609 0.9029 -0.3415
vn -0.3614 0.8334 -0.4182
vn -0.4912 0.7001 -0.5183
vn -0.6403 0.4312 -0.6357
vn -0.7177 -0.0000 -0.6964
vn -0.6403 -0.4312 -0.6357
vn -0.4912 -0.7001 -0.5183
vn -0.3614 -0.8334 -0.4182
vn -0.2609 -0.9029 -0.3415
vn -0.1758 -0.9454 -0.2746
vn -0.0933 -0.9744 -0.2043
vn -0.0635 0.9715 -0.2283
vn -0.1177 0.9391 -0.3229
vn -0.1645 0.8849 -0.4359
vn -0.2053 0.8074 -0.5532
vn -0.2711 0.6769 -0.6843
vn -0.3591 0.4151 -0.8359
vn -0.4061 -0.0000 -0.9138
vn -0.3591 -0.4151 -0.8359
vn -0.2711 -0.6769 -0.6843
vn -0.2053 -0.8074 -0.5532
vn -0.1645 -0.8849 -0.4359
vn -0.1177 -0.9391 -0.3229
vn -0.0635 -0.9715 -0.2283
vn -0.0320 0.9696 -0.2426
vn -0.0535 0.9326 -0.3570
vn -0.0262 0.8224 -0.5683
vn 0.0590 0.6887 -0.7226
vn 0.1315 0.5504 -0.8244
vn 0.1432 0.3247 -0.9349
vn 0.1348 -0.0000 -0.9909
vn 0.1432 -0.3247 -0.9349
vn 0.1315 -0.5504 -0.8244
vn 0.0590 -0.6887 -0.7226
vn -0.0262 -0.8224 -0.5683
vn -0.0535 -0.9326 -0.3570
vn -0.0320 -0.9696 -0.2426
vn -0.0000 0.9287 -0.3708
vn -0.0000 0.5791 -0.8153
vn -0.0000 -0.5791 -0.8153
vn -0.0000 -0.9287 -0.3708
vt 0.750000 0.428571
vt 0.750000 0.500000
vt 0.708333 0.500000
vt 0.708333 0.428571
vt 0.750000 0.928572
vt 0.729167 1.000000
vt 0.708333 0.928572
vt 0.750000 0.357143
vt 0.708333 0.357143
vt 0.750000 0.857143
vt 0.708333 0.857143
vt 0.750000 0.285714
vt 0.708333 0.285714
vt 0.750000 0.785714
vt 0.708333 0.785714
vt 0.750000 0.214286
vt 0.708333 0.214286
vt 0.750000 0.714286
vt 0.708333 0.714286
vt 0.750000 0.142857
vt 0.708333 0.142857
vt 0.750000 0.642857
vt 0.708333 0.642857
vt 0.750000 0.071429
vt 0.708333 0.071429
vt 0.750000 0.571429
vt 0.708333 0.571429
vt 0.729167 0.000000
vt 0.687500 1.000000
vt 0.666667 0.928572
vt 0.666667 0.428571
vt 0.666667 0.357143
vt 0.666667 0.857143
vt 0.666667 0.285714
vt 0.666667 0.785714
vt 0.666667 0.214286
vt 0.666667 0.714286
vt 0.666667 0.142857
vt 0.666667 0.642857
vt 0.666667 0.071429
vt 0.666667 0.571429
vt 0.687500 0.000000
vt 0.666667 0.500000
vt 0.625000 0.428571
vt 0.625000 0.357143
vt 0.625000 0.928572
vt 0.625000 0.857143
vt 0.625000 0.285714
vt 0.625000 0.785714
vt 0.625000 0.214286
vt 0.625000 0.714286
vt 0.625000 0.142857
vt 0.625000 0.642857
vt 0.625000 0.071429
vt 0.625000 0.571429
vt 0.645833 0.000000
vt 0.625000 0.500000
vt 0.645833 1.000000
vt 0.583333 0.357143
vt 0.583333 0.285714
vt 0.583333 0.857143
vt 0.583333 0.785714
vt 0.583333 0.214286
vt 0.583333 0.714286
vt 0.583333 0.142857
vt 0.583333 0.642857
vt 0.583333 0.071429
vt 0.583333 0.571429
vt 0.604167 0.000000
vt 0.583333 0.500000
vt 0.583333 0.428571
vt 0.604167 1.000000
vt 0.583333 0.928572
vt 0.541667 0.857143
vt 0.541667 0.785714
vt 0.541667 0.285714
vt 0.541667 0.214286
vt 0.541667 0.714286
vt 0.541667 0.142857
vt 0.541667 0.642857
vt 0.541667 0.071429
vt 0.541667 0.571429
vt 0.562500 0.000000
vt 0.541667 0.500000
vt 0.541667 0.428571
vt 0.562500 1.000000
vt 0.541667 0.928572
vt 0.541667 0.357143
vt 0.500000 0.285714
vt 0.500000 0.214286
vt 0.500000 0.785714
vt 0.500000 0.714286
vt 0.500000 0.142857
vt 0.500000 0.642857
vt 0.500000 0.071429
vt 0.500000 0.571429
vt 0.520833 0.000000
vt 0.500000 0.500000
vt 0.500000 0.428571
vt 0.520833 1.000000
vt 0.500000 0.928572
vt 0.500000 0.357143
vt 0.500000 0.857143
vt 0.458333 0.785714
vt 0.458333 0.714286
vt 0.458333 0.214286
vt 0.458333 0.142857
vt 0.458333 0.642857
vt 0.458333 0.071429
vt 0.458333 0.571429
vt 0.479167 0.000000
vt 0.458333 0.500000
vt 0.458333 0.428571
vt 0.479167 1.000000
vt 0.458333 0.928572
vt 0.458333 0.357143
vt 0.458333 0.857143
vt 0.458333 0.285714
vt 0.416667 0.214286
vt 0.416667 0.142857
vt 0.416667 0.714286
vt 0.416667 0.642857
vt 0.416667 0.071429
vt 0.416667 0.571429
vt 0.437500 0.000000
vt 0.416667 0.500000
vt 0.416667 0.428571
vt 0.437500 1.000000
vt 0.416667 0.928572
vt 0.416667 0.357143
vt 0.416667 0.857143
vt 0.416667 0.285714
vt 0.416667 0.785714
vt 0.375000 0.142857
vt 0.375000 0.071429
vt 0.375000 0.642857
vt 0.375000 0.571429
vt 0.395833 0.000000
vt 0.375000 0.500000
vt 0.375000 0.428571
vt 0.395833 1.000000
vt 0.375000 0.928572
vt 0.375000 0.357143
vt 0.375000 0.857143
vt 0.375000 0.285714
vt 0.375000 0.785714
vt 0.375000 0.214286
vt 0.375000 0.714286
vt 0.333333 0.642857
vt 0.333333 0.571429
vt 0.354167 0.000000
vt 0.333333 0.071429
vt 0.333333 0.500000
vt 0.333333 0.428571
vt 0.354167 1.000000
vt 0.333333 0.928572
vt 0.333333 0.357143
vt 0.333333 0.857143
vt 0.333333 0.285714
vt 0.333333 0.785714
vt 0.333333 0.214286
vt 0.333333 0.714286
vt 0.333333 0.142857
vt 0.312500 0.000000
vt 0.291667 0.071429
vt 0.291667 0.571429
vt 0.291667 0.500000
vt 0.291667 0.428571
vt 0.312500 1.000000
vt 0.291667 0.928572
vt 0.291667 0.357143
vt 0.291667 0.857143
vt 0.291667 0.285714
vt 0.291667 0.785714
vt 0.291667 0.214286
vt 0.291667 0.714286
vt 0.291667 0.142857
vt 0.291667 0.642857
vt 0.250000 0.571429
vt 0.250000 0.500000
vt 0.250000 0.428571
vt 0.270833 1.000000
vt 0.250000 0.928572
vt 0.250000 0.357143
vt 0.250000 0.857143
vt 0.250000 0.285714
vt 0.250000 0.785714
vt 0.250000 0.214286
vt 0.250000 0.714286
vt 0.250000 0.142857
vt 0.250000 0.642857
vt 0.250000 0.071429
vt 0.270833 0.000000
vt 0.208333 0.500000
vt 0.208333 0.428571
vt 0.229167 1.000000
vt 0.208333 0.928572
vt 0.208333 0.357143
vt 0.208333 0.857143
vt 0.208333 0.285714
vt 0.208333 0.785714
vt 0.208333 0.214286
vt 0.208333 0.714286
vt 0.208333 0.142857
vt 0.208333 0.642857
vt 0.208333 0.071429
vt 0.208333 0.571429
vt 0.229167 0.000000
vt 0.187500 1.000000
vt 0.166667 0.928572
vt 0.166667 0.428571
vt 0.166667 0.357143
vt 0.166667 0.857143
vt 0.166667 0.285714
vt 0.166667 0.785714
vt 0.166667 0.214286
vt 0.166667 0.714286
vt 0.166667 0.142857
vt 0.166667 0.642857
vt 0.166667 0.071429
vt 0.166667 0.571429
vt 0.187500 0.000000
vt 0.166667 0.500000
vt 0.125000 0.428571
vt 0.125000 0.357143
vt 0.125000 0.928572
vt 0.125000 0.857143
vt 0.125000 0.285714
vt 0.125000 0.785714
vt 0.125000 0.214286
vt 0.125000 0.714286
vt 0.125000 0.142857
vt 0.125000 0.642857
vt 0.125000 0.071429
vt 0.125000 0.571429
vt 0.145833 0.000000
vt 0.125000 0.500000
vt 0.145833 1.000000
vt 0.083333 0.928572
vt 0.083333 0.857143
vt 0.083333 0.357143
vt 0.083333 0.285714
vt 0.083333 0.785714
vt 0.083333 0.214286
vt 0.083333 0.714286
vt 0.083333 0.142857
vt 0.083333 0.642857
vt 0.083333 0.071429
vt 0.083333 0.571429
vt 0.104167 0.000000
vt 0.083333 0.500000
vt 0.083333 0.428571
vt 0.104167 1.000000
vt 0.041667 0.357143
vt 0.041667 0.285714
vt 0.041667 0.857143
vt 0.041667 0.785714
vt 0.041667 0.214286
vt 0.041667 0.714286
vt 0.041667 0.142857
vt 0.041667 0.642857
vt 0.041667 0.071429
vt 0.041667 0.571429
vt 0.062500 0.000000
vt 0.041667 0.500000
vt 0.041667 0.428571
vt 0.062500 1.000000
vt 0.041667 0.928572
vt 0.000000 0.285714
vt 0.000000 0.214286
vt 0.000000 0.785714
vt 0.000000 0.714286
vt 0.000000 0.142857
vt 0.000000 0.642857
vt 0.000000 0.071429
vt 0.000000 0.571429
vt 0.020833 0.000000
vt 0.000000 0.500000
vt 0.000000 0.428571
vt 0.020833 1.000000
vt 0.000000 0.928572
vt 0.000000 0.357143
vt 0.000000 0.857143
vt 1.000000 0.714286
vt 1.000000 0.785714
vt 0.958333 0.785714
vt 0.958333 0.714286
vt 1.000000 0.142857
vt 1.000000 0.214286
vt 0.958333 0.214286
vt 0.958333 0.142857
vt 1.000000 0.642857
vt 0.958333 0.642857
vt 1.000000 0.071429
vt 0.958333 0.071429
vt 1.000000 0.571429
vt 0.958333 0.571429
vt 0.979167 0.000000
vt 1.000000 0.500000
vt 0.958333 0.500000
vt 1.000000 0.428571
vt 0.958333 0.428571
vt 1.000000 0.928572
vt 0.979167 1.000000
vt 0.958333 0.928572
vt 1.000000 0.357143
vt 0.958333 0.357143
vt 1.000000 0.857143
vt 0.958333 0.857143
vt 1.000000 0.285714
vt 0.958333 0.285714
vt 0.916667 0.214286
vt 0.916667 0.142857
vt 0.916667 0.714286
vt 0.916667 0.642857
vt 0.916667 0.071429
vt 0.916667 0.571429
vt 0.937500 0.000000
vt 0.916667 0.500000
vt 0.916667 0.428571
vt 0.937500 1.000000
vt 0.916667 0.928572
vt 0.916667 0.357143
vt 0.916667 0.857143
vt 0.916667 0.285714
vt 0.916667 0.785714
vt 0.875000 0.714286
vt 0.875000 0.642857
vt 0.875000 0.142857
vt 0.875000 0.071429
vt 0.875000 0.571429
vt 0.895833 0.000000
vt 0.875000 0.500000
vt 0.875000 0.428571
vt 0.895833 1.000000
vt 0.875000 0.928572
vt 0.875000 0.357143
vt 0.875000 0.857143
vt 0.875000 0.285714
vt 0.875000 0.785714
vt 0.875000 0.214286
vt 0.833333 0.142857
vt 0.833333 0.071429
vt 0.833333 0.642857
vt 0.833333 0.571429
vt 0.854167 0.000000
vt 0.833333 0.500000
vt 0.833333 0.428571
vt 0.854167 1.000000
vt 0.833333 0.928572
vt 0.833333 0.357143
vt 0.833333 0.857143
vt 0.833333 0.285714
vt 0.833333 0.785714
vt 0.833333 0.214286
vt 0.833333 0.714286
vt 0.812500 0.000000
vt 0.791667 0.071429
vt 0.791667 0.571429
vt 0.791667 0.500000
vt 0.791667 0.428571
vt 0.812500 1.000000
vt 0.791667 0.928572
vt 0.791667 0.357143
vt 0.791667 0.857143
vt 0.791667 0.285714
vt 0.791667 0.785714
vt 0.791667 0.214286
vt 0.791667 0.714286
vt 0.791667 0.142857
vt 0.791667 0.642857
vt 0.770833 1.000000
vt 0.770833 0.000000
s 1
usemtl TongueTip
f 7/1/7 6/2/6 18/3/18 19/4/19
f 2/5/2 1/6/1 12/7/12
f 8/8/8 7/1/7 19/4/19 20/9/20
f 311/10/311 2/5/2 12/7/12 13/11/13
f 313/12/313 8/8/8 20/9/20 21/13/21
f 3/14/3 311/10/311 13/11/13 14/15/14
f 9/16/9 313/12/313 21/13/21 22/17/22
f 312/18/312 3/14/3 14/15/14 15/19/15
f 314/20/314 9/16/9 22/17/22 23/21/23
f 4/22/4 312/18/312 15/19/15 16/23/16
f 10/24/10 314/20/314 23/21/23 24/25/24
f 5/26/5 4/22/4 16/23/16 17/27/17
f 11/28/11 10/24/10 24/25/24
f 6/2/6 5/26/5 17/27/17 18/3/18
f 12/7/12 1/29/1 25/30/25
f 20/9/20 19/4/19 32/31/32 33/32/33
f 13/11/13 12/7/12 25/30/25 26/33/26
f 21/13/21 20/9/20 33/32/33 34/34/34
f 14/15/14 13/11/13 26/33/26 27/35/27
f 22/17/22 21/13/21 34/34/34 35/36/35
f 15/19/15 14/15/14 27/35/27 28/37/28
f 23/21/23 22/17/22 35/36/35 36/38/36
f 16/23/16 15/19/15 28/37/28 29/39/29
f 24/25/24 23/21/23 36/38/36 37/40/37
f 17/27/17 16/23/16 29/39/29 30/41/30
f 11/42/11 24/25/24 37/40/37
f 18/3/18 17/27/17 30/41/30 31/43/31
f 19/4/19 18/3/18 31/43/31 32/31/32
f 33/32/33 32/31/32 45/44/45 46/45/46
f 26/33/26 25/30/25 38/46/38 39/47/39
f 34/34/34 33/32/33 46/45/46 47/48/47
f 27/35/27 26/33/26 39/47/39 40/49/40
f 35/36/35 34/34/34 47/48/47 48/50/48
f 28/37/28 27/35/27 40/49/40 41/51/41
f 36/38/36 35/36/35 48/50/48 49/52/49
f 29/39/29 28/37/28 41/51/41 42/53/42
f 37/40/37 36/38/36 49/52/49 50/54/50
f 30/41/30 29/39/29 42/53/42 43/55/43
f 11/56/11 37/40/37 50/54/50
f 31/43/31 30/41/30 43/55/43 44/57/44
f 32/31/32 31/43/31 44/57/44 45/44/45
f 25/30/25 1/58/1 38/46/38
f 47/48/47 46/45/46 59/59/59 60/60/60
f 40/49/40 39/47/39 52/61/52 53/62/53
f 48/50/48 47/48/47 60/60/60 61/63/61
f 41/51/41 40/49/40 53/62/53 54/64/54
f 49/52/49 48/50/48 61/63/61 62/65/62
f 42/53/42 41/51/41 54/64/54 55/66/55
f 50/54/50 49/52/49 62/65/62 63/67/63
f 43/55/43 42/53/42 55/66/55 56/68/56
f 11/69/11 50/54/50 63/67/63
f 44/57/44 43/55/43 56/68/56 57/70/57
f 45/44/45 44/57/44 57/70/57 58/71/58
f 38/46/38 1/72/1 51/73/51
f 46/45/46 45/44/45 58/71/58 59/59/59
f 39/47/39 38/46/38 51/73/51 52/61/52
f 53/62/53 52/61/52 65/74/65 66/75/66
f 61/63/61 60/60/60 73/76/73 74/77/74
f 54/64/54 53/62/53 66/75/66 67/78/67
f 62/65/62 61/63/61 74/77/74 75/79/75
f 55/66/55 54/64/54 67/78/67 68/80/68
f 63/67/63 62/65/62 75/79/75 76/81/76
f 56/68/56 55/66/55 68/80/68 69/82/69
f 11/83/11 63/67/63 76/81/76
f 57/70/57 56/68/56 69/82/69 70/84/70
f 58/71/58 57/70/57 70/84/70 71/85/71
f 51/73/51 1/86/1 64/87/64
f 59/59/59 58/71/58 71/85/71 72/88/72
f 52/61/52 51/73/51 64/87/64 65/74/65
f 60/60/60 59/59/59 72/88/72 73/76/73
f 74/77/74 73/76/73 86/89/86 87/90/87
f 67/78/67 66/75/66 79/91/79 80/92/80
f 75/79/75 74/77/74 87/90/87 88/93/88
f 68/80/68 67/78/67 80/92/80 81/94/81
f 76/81/76 75/79/75 88/93/88 89/95/89
f 69/82/69 68/80/68 81/94/81 82/96/82
f 11/97/11 76/81/76 89/95/89
f 70/84/70 69/82/69 82/96/82 83/98/83
f 71/85/71 70/84/70 83/98/83 84/99/84
f 64/87/64 1/100/1 77/101/77
f 72/88/72 71/85/71 84/99/84 85/102/85
f 65/74/65 64/87/64 77/101/77 78/103/78
f 73/76/73 72/88/72 85/102/85 86/89/86
f 66/75/66 65/74/65 78/103/78 79/91/79
f 80/92/80 79/91/79 92/104/92 93/105/93
f 88/93/88 87/90/87 100/106/100 101/107/101
f 81/94/81 80/92/80 93/105/93 94/108/94
f 89/95/89 88/93/88 101/107/101 102/109/102
f 82/96/82 81/94/81 94/108/94 95/110/95
f 11/111/11 89/95/89 102/109/102
f 83/98/83 82/96/82 95/110/95 96/112/96
f 84/99/84 83/98/83 96/112/96 97/113/97
f 77/101/77 1/114/1 90/115/90
f 85/102/85 84/99/84 97/113/97 98/116/98
f 78/103/78 77/101/77 90/115/90 91/117/91
f 86/89/86 85/102/85 98/116/98 99/118/99
f 79/91/79 78/103/78 91/117/91 92/104/92
f 87/90/87 86/89/86 99/118/99 100/106/100
f 101/107/101 100/106/100 113/119/113 114/120/114
f 94/108/94 93/105/93 106/121/106 107/122/107
f 102/109/102 101/107/101 114/120/114 115/123/115
f 95/110/95 94/108/94 107/122/107 108/124/108
f 11/125/11 102/109/102 115/123/115
f 96/112/96 95/110/95 108/124/108 109/126/109
f 97/113/97 96/112/96 109/126/109 110/127/110
f 90/115/90 1/128/1 103/129/103
f 98/116/98 97/113/97 110/127/110 111/130/111
f 91/117/91 90/115/90 103/129/103 104/131/104
f 99/118/99 98/116/98 111/130/111 112/132/112
f 92/104/92 91/117/91 104/131/104 105/133/105
f 100/106/100 99/118/99 112/132/112 113/119/113
f 93/105/93 92/104/92 105/133/105 106/121/106
f 115/123/115 114/120/114 127/134/127 128/135/128
f 108/124/108 107/122/107 120/136/120 121/137/121
f 11/138/11 115/123/115 128/135/128
f 109/126/109 108/124/108 121/137/121 122/139/122
f 110/127/110 109/126/109 122/139/122 123/140/123
f 103/129/103 1/141/1 116/142/116
f 111/130/111 110/127/110 123/140/123 124/143/124
f 104/131/104 103/129/103 116/142/116 117/144/117
f 112/132/112 111/130/111 124/143/124 125/145/125
f 105/133/105 104/131/104 117/144/117 118/146/118
f 113/119/113 112/132/112 125/145/125 126/147/126
f 106/121/106 105/133/105 118/146/118 119/148/119
f 114/120/114 113/119/113 126/147/126 127/134/127
f 107/122/107 106/121/106 119/148/119 120/136/120
f 121/137/121 120/136/120 133/149/133 134/150/134
f 11/151/11 128/135/128 141/152/141
f 122/139/122 121/137/121 134/150/134 135/153/135
f 123/140/123 122/139/122 135/153/135 136/154/136
f 116/142/116 1/155/1 129/156/129
f 124/143/124 123/140/123 136/154/136 137/157/137
f 117/144/117 116/142/116 129/156/129 130/158/130
f 125/145/125 124/143/124 137/157/137 138/159/138
f 118/146/118 117/144/117 130/158/130 131/160/131
f 126/147/126 125/145/125 138/159/138 139/161/139
f 119/148/119 118/146/118 131/160/131 132/162/132
f 127/134/127 126/147/126 139/161/139 140/163/140
f 120/136/120 119/148/119 132/162/132 133/149/133
f 128/135/128 127/134/127 140/163/140 141/152/141
f 11/164/11 141/152/141 154/165/154
f 135/153/135 134/150/134 147/166/147 148/167/148
f 136/154/136 135/153/135 148/167/148 149/168/149
f 129/156/129 1/169/1 142/170/142
f 137/157/137 136/154/136 149/168/149 150/171/150
f 130/158/130 129/156/129 142/170/142 143/172/143
f 138/159/138 137/157/137 150/171/150 151/173/151
f 131/160/131 130/158/130 143/172/143 144/174/144
f 139/161/139 138/159/138 151/173/151 152/175/152
f 132/162/132 131/160/131 144/174/144 145/176/145
f 140/163/140 139/161/139 152/175/152 153/177/153
f 133/149/133 132/162/132 145/176/145 146/178/146
f 141/152/141 140/163/140 153/177/153 154/165/154
f 134/150/134 133/149/133 146/178/146 147/166/147
f 148/167/148 147/166/147 160/179/160 161/180/161
f 149/168/149 148/167/148 161/180/161 162/181/162
f 142/170/142 1/182/1 155/183/155
f 150/171/150 149/168/149 162/181/162 163/184/163
f 143/172/143 142/170/142 155/183/155 156/185/156
f 151/173/151 150/171/150 163/184/163 164/186/164
f 144/174/144 143/172/143 156/185/156 157/187/157
f 152/175/152 151/173/151 164/186/164 165/188/165
f 145/176/145 144/174/144 157/187/157 158/189/158
f 153/177/153 152/175/152 165/188/165 166/190/166
f 146/178/146 145/176/145 158/189/158 159/191/159
f 154/165/154 153/177/153 166/190/166 167/192/167
f 147/166/147 146/178/146 159/191/159 160/179/160
f 11/193/11 154/165/154 167/192/167
f 162/181/162 161/180/161 174/194/174 175/195/175
f 155/183/155 1/196/1 168/197/168
f 163/184/163 162/181/162 175/195/175 176/198/176
f 156/185/156 155/183/155 168/197/168 169/199/169
f 164/186/164 163/184/163 176/198/176 177/200/177
f 157/187/157 156/185/156 169/199/169 170/201/170
f 165/188/165 164/186/164 177/200/177 178/202/178
f 158/189/158 157/187/157 170/201/170 171/203/171
f 166/190/166 165/188/165 178/202/178 179/204/179
f 159/191/159 158/189/158 171/203/171 172/205/172
f 167/192/167 166/190/166 179/204/179 180/206/180
f 160/179/160 159/191/159 172/205/172 173/207/173
f 11/208/11 167/192/167 180/206/180
f 161/180/161 160/179/160 173/207/173 174/194/174
f 168/197/168 1/209/1 181/210/181
f 176/198/176 175/195/175 188/211/188 189/212/189
f 169/199/169 168/197/168 181/210/181 182/213/182
f 177/200/177 176/198/176 189/212/189 190/214/190
f 170/201/170 169/199/169 182/213/182 183/215/183
f 178/202/178 177/200/177 190/214/190 191/216/191
f 171/203/171 170/201/170 183/215/183 184/217/184
f 179/204/179 178/202/178 191/216/191 192/218/192
f 172/205/172 171/203/171 184/217/184 185/219/185
f 180/206/180 179/204/179 192/218/192 193/220/193
f 173/207/173 172/205/172 185/219/185 186/221/186
f 11/222/11 180/206/180 193/220/193
f 174/194/174 173/207/173 186/221/186 187/223/187
f 175/195/175 174/194/174 187/223/187 188/211/188
f 189/212/189 188/211/188 201/224/201 202/225/202
f 182/213/182 181/210/181 194/226/194 195/227/195
f 190/214/190 189/212/189 202/225/202 203/228/203
f 183/215/183 182/213/182 195/227/195 196/229/196
f 191/216/191 190/214/190 203/228/203 204/230/204
f 184/217/184 183/215/183 196/229/196 197/231/197
f 192/218/192 191/216/191 204/230/204 205/232/205
f 185/219/185 184/217/184 197/231/197 198/233/198
f 193/220/193 192/218/192 205/232/205 206/234/206
f 186/221/186 185/219/185 198/233/198 199/235/199
f 11/236/11 193/220/193 206/234/206
f 187/223/187 186/221/186 199/235/199 200/237/200
f 188/211/188 187/223/187 200/237/200 201/224/201
f 181/210/181 1/238/1 194/226/194
f 195/227/195 194/226/194 207/239/207 208/240/208
f 203/228/203 202/225/202 215/241/215 216/242/216
f 196/229/196 195/227/195 208/240/208 209/243/209
f 204/230/204 203/228/203 216/242/216 217/244/217
f 197/231/197 196/229/196 209/243/209 210/245/210
f 205/232/205 204/230/204 217/244/217 218/246/218
f 198/233/198 197/231/197 210/245/210 211/247/211
f 206/234/206 205/232/205 218/246/218 219/248/219
f 199/235/199 198/233/198 211/247/211 212/249/212
f 11/250/11 206/234/206 219/248/219
f 200/237/200 199/235/199 212/249/212 213/251/213
f 201/224/201 200/237/200 213/251/213 214/252/214
f 194/226/194 1/253/1 207/239/207
f 202/225/202 201/224/201 214/252/214 215/241/215
f 216/242/216 215/241/215 228/254/228 229/255/229
f 209/243/209 208/240/208 221/256/221 222/257/222
f 217/244/217 216/242/216 229/255/229 230/258/230
f 210/245/210 209/243/209 222/257/222 223/259/223
f 218/246/218 217/244/217 230/258/230 231/260/231
f 211/247/211 210/245/210 223/259/223 224/261/224
f 219/248/219 218/246/218 231/260/231 232/262/232
f 212/249/212 211/247/211 224/261/224 225/263/225
f 11/264/11 219/248/219 232/262/232
f 213/251/213 212/249/212 225/263/225 226/265/226
f 214/252/214 213/251/213 226/265/226 227/266/227
f 207/239/207 1/267/1 220/268/220
f 215/241/215 214/252/214 227/266/227 228/254/228
f 208/240/208 207/239/207 220/268/220 221/256/221
f 230/258/230 229/255/229 242/269/242 243/270/243
f 223/259/223 222/257/222 235/271/235 236/272/236
f 231/260/231 230/258/230 243/270/243 244/273/244
f 224/261/224 223/259/223 236/272/236 237/274/237
f 232/262/232 231/260/231 244/273/244 245/275/245
f 225/263/225 224/261/224 237/274/237 238/276/238
f 11/277/11 232/262/232 245/275/245
f 226/265/226 225/263/225 238/276/238 239/278/239
f 227/266/227 226/265/226 239/278/239 240/279/240
f 220/268/220 1/280/1 233/281/233
f 228/254/228 227/266/227 240/279/240 241/282/241
f 221/256/221 220/268/220 233/281/233 234/283/234
f 229/255/229 228/254/228 241/282/241 242/269/242
f 222/257/222 221/256/221 234/283/234 235/271/235
f 236/284/236 235/285/235 248/286/248 249/287/249
f 244/288/244 243/289/243 256/290/256 257/291/257
f 237/292/237 236/284/236 249/287/249 250/293/250
f 245/294/245 244/288/244 257/291/257 258/295/258
f 238/296/238 237/292/237 250/293/250 251/297/251
f 11/298/11 245/294/245 258/295/258
f 239/299/239 238/296/238 251/297/251 252/300/252
f 240/301/240 239/299/239 252/300/252 253/302/253
f 233/303/233 1/304/1 246/305/246
f 241/306/241 240/301/240 253/302/253 254/307/254
f 234/308/234 233/303/233 246/305/246 247/309/247
f 242/310/242 241/306/241 254/307/254 255/311/255
f 235/285/235 234/308/234 247/309/247 248/286/248
f 243/289/243 242/310/242 255/311/255 256/290/256
f 257/291/257 256/290/256 269/312/269 270/313/270
f 250/293/250 249/287/249 262/314/262 263/315/263
f 258/295/258 257/291/257 270/313/270 271/316/271
f 251/297/251 250/293/250 263/315/263 264/317/264
f 11/318/11 258/295/258 271/316/271
f 252/300/252 251/297/251 264/317/264 265/319/265
f 253/302/253 252/300/252 265/319/265 266/320/266
f 246/305/246 1/321/1 259/322/259
f 254/307/254 253/302/253 266/320/266 267/323/267
f 247/309/247 246/305/246 259/322/259 260/324/260
f 255/311/255 254/307/254 267/323/267 268/325/268
f 248/286/248 247/309/247 260/324/260 261/326/261
f 256/290/256 255/311/255 268/325/268 269/312/269
f 249/287/249 248/286/248 261/326/261 262/314/262
f 263/315/263 262/314/262 275/327/275 276/328/276
f 271/316/271 270/313/270 283/329/283 284/330/284
f 264/317/264 263/315/263 276/328/276 277/331/277
f 11/332/11 271/316/271 284/330/284
f 265/319/265 264/317/264 277/331/277 278/333/278
f 266/320/266 265/319/265 278/333/278 279/334/279
f 259/322/259 1/335/1 272/336/272
f 267/323/267 266/320/266 279/334/279 280/337/280
f 260/324/260 259/322/259 272/336/272 273/338/273
f 268/325/268 267/323/267 280/337/280 281/339/281
f 261/326/261 260/324/260 273/338/273 274/340/274
f 269/312/269 268/325/268 281/339/281 282/341/282
f 262/314/262 261/326/261 274/340/274 275/327/275
f 270/313/270 269/312/269 282/341/282 283/329/283
f 284/330/284 283/329/283 296/342/296 297/343/297
f 277/331/277 276/328/276 289/344/289 290/345/290
f 11/346/11 284/330/284 297/343/297
f 278/333/278 277/331/277 290/345/290 291/347/291
f 279/334/279 278/333/278 291/347/291 292/348/292
f 272/336/272 1/349/1 285/350/285
f 280/337/280 279/334/279 292/348/292 293/351/293
f 273/338/273 272/336/272 285/350/285 286/352/286
f 281/339/281 280/337/280 293/351/293 294/353/294
f 274/340/274 273/338/273 286/352/286 287/354/287
f 282/341/282 281/339/281 294/353/294 295/355/295
f 275/327/275 274/340/274 287/354/287 288/356/288
f 283/329/283 282/341/282 295/355/295 296/342/296
f 276/328/276 275/327/275 288/356/288 289/344/289
f 11/357/11 297/343/297 310/358/310
f 291/347/291 290/345/290 303/359/303 304/360/304
f 292/348/292 291/347/291 304/360/304 305/361/305
f 285/350/285 1/362/1 298/363/298
f 293/351/293 292/348/292 305/361/305 306/364/306
f 286/352/286 285/350/285 298/363/298 299/365/299
f 294/353/294 293/351/293 306/364/306 307/366/307
f 287/354/287 286/352/286 299/365/299 300/367/300
f 295/355/295 294/353/294 307/366/307 308/368/308
f 288/356/288 287/354/287 300/367/300 301/369/301
f 296/342/296 295/355/295 308/368/308 309/370/309
f 289/344/289 288/356/288 301/369/301 302/371/302
f 297/343/297 296/342/296 309/370/309 310/358/310
f 290/345/290 289/344/289 302/371/302 303/359/303
f 304/360/304 303/359/303 5/26/5 6/2/6
f 305/361/305 304/360/304 6/2/6 7/1/7
f 298/363/298 1/372/1 2/5/2
f 306/364/306 305/361/305 7/1/7 8/8/8
f 299/365/299 298/363/298 2/5/2 311/10/311
f 307/366/307 306/364/306 8/8/8 313/12/313
f 300/367/300 299/365/299 311/10/311 3/14/3
f 308/368/308 307/366/307 313/12/313 9/16/9
f 301/369/301 300/367/300 3/14/3 312/18/312
f 309/370/309 308/368/308 9/16/9 314/20/314
f 302/371/302 301/369/301 312/18/312 4/22/4
f 310/358/310 309/370/309 314/20/314 10/24/10
f 303/359/303 302/371/302 4/22/4 5/26/5
f 11/373/11 310/358/310 10/24/10
